<?xml version="1.0" encoding="utf-8"?>
<!-- Generator: Adobe Illustrator 21.0.2, SVG Export Plug-In . SVG Version: 6.00 Build 0)  -->
<svg version="1.1" id="Layer_1" xmlns="http://www.w3.org/2000/svg" xmlns:xlink="http://www.w3.org/1999/xlink" x="0px" y="0px"
	 viewBox="0 0 34.5 16" style="enable-background:new 0 0 34.5 16;" xml:space="preserve">
<style type="text/css">
	.st0{fill:#5b5b5b;}
</style>
<g id="Padding__x26__Artboard">
</g>
<g id="Icons">
	<g>
		<path class="st0" d="M25.5,14.3L25.5,14.3c-0.6-0.6-1.3-0.9-2-1.3c-0.1-0.1-0.3-0.1-0.4-0.2c-0.4-0.2-0.8-0.4-1.3-0.7 c-0.5-0.3-0.9-0.5-1.1-1c-0.2-0.5-0.2-0.6-0.2-1l0.2-0.3c0.2-0.3,0.3-1,0.4-1.4c0.3-0.1,0.4-0.4,0.5-0.6l0-0.1 c0.1-0.3,0.2-0.6,0.2-0.9l0-0.1c0-0.3,0.1-0.6-0.2-0.9c-0.1-0.1-0.2-0.1-0.3-0.1c0-0.2,0-0.6,0-1.2l0.3-0.2 c0.1-0.1,0.1-0.2,0.1-0.3l-0.1-0.9c0-0.1-0.4-2-2.5-2.5c-1.8-0.4-3,0.4-3.3,0.6c-0.5,0-1.1,0.3-1.4,1.4c-0.2,0.8,0,1.8,0,1.8 c0,0.7,0,1,0,1.3c-0.1,0-0.2,0.1-0.3,0.1c-0.3,0.3-0.2,0.7-0.2,1c0,0.4,0.1,0.7,0.3,1c0.1,0.2,0.3,0.5,0.5,0.6 c0.1,0.4,0.2,1.1,0.4,1.4l0.2,0.3c0,0.5,0,0.5-0.2,1c-0.2,0.5-0.4,0.6-1,0.9c-0.1,0-0.1,0.1-0.2,0.1l-0.2,0.1 c-0.1,0-0.2,0.1-0.2,0.3c0,0.1,0.1,0.2,0.2,0.3c0.8,0.4,2.3,1.4,2.7,3.1c0,0.1,0.1,0.2,0.3,0.2H26c0.1,0,0.2,0,0.2-0.1 c0.1-0.1,0.1-0.1,0.1-0.2C26.2,15.5,26,14.9,25.5,14.3z"/>
		<path d="M15.9,15.7c-0.1-0.3-0.3-0.9-0.8-1.5c0,0,0-0.1-0.1-0.1c-0.5-0.5-1.2-0.8-1.8-1.2L13,12.8c0,0-0.1,0-0.1-0.1 c0,0-0.1-0.1-0.1-0.1c-0.2-0.1-0.4-0.2-0.6-0.3l-0.4-0.2c-0.1,0-0.2-0.1-0.3-0.1c-0.4-0.2-0.9-0.4-1-0.8c-0.2-0.4-0.2-0.9-0.2-1.3 h1c0.1,0,0.2-0.1,0.3-0.2c0-0.1,0-0.2,0-0.3l0,0c1.2-0.3,1.2-0.4,1.2-0.6c0-0.2-0.1-0.4-0.2-0.5l0-0.1c0,0-0.1-0.1-0.1-0.1 c0,0-0.1-0.1-0.1-0.1c0-0.3,0.1-0.6,0.2-0.9c0.1-0.2,0.1-0.4,0.2-0.6c0.1-0.3,0.1-0.5,0.1-0.8c0-0.5-0.1-1.1-0.2-1.7 c-0.2-0.6-0.4-1.2-0.6-1.7c-0.3-0.6-0.7-1.1-1.1-1.5C10.1,0.4,9.5,0.1,9,0c-0.6-0.1-1.3,0-2,0.3c-0.3,0-0.7,0.1-1,0.2 C5.4,0.8,4.8,1.3,4.3,2C3.9,2.6,3.6,3.4,3.5,4.2C3.3,5.1,3.3,6,3.5,6.7c0,0.2,0.1,0.3,0.1,0.5c0,0.1,0.1,0.2,0.1,0.3l0,0.1 c0,0.1,0.1,0.3,0.1,0.3C3.9,7.9,3.8,8,3.8,8c0,0.1-0.1,0.1-0.2,0.2C3.5,8.4,3.4,8.5,3.4,8.7c0,0.2,0,0.3,1.2,0.6l0,0 c-0.1,0.1-0.1,0.2,0,0.3c0,0.1,0.1,0.2,0.3,0.2h1c0,0.5-0.1,0.9-0.2,1.3C5.5,11.5,5,11.7,4.6,12c-0.1,0-0.2,0.1-0.4,0.2 c-0.4,0.2-0.8,0.4-1.1,0.6c-0.1,0.1-0.3,0.2-0.4,0.2c-0.6,0.3-1.3,0.7-1.8,1.2l0,0.1c-0.5,0.6-0.7,1.2-0.7,1.5 c0,0.1,0,0.2,0.1,0.2S0.2,16,0.3,16h9.5h5.9c0,0,0,0,0,0c0,0,0,0,0.1,0c0,0,0,0,0,0c0,0,0,0,0.1,0c0,0,0,0,0,0c0,0,0,0,0,0 c0,0,0,0,0,0c0,0,0,0,0-0.1C15.9,15.8,15.9,15.8,15.9,15.7C15.9,15.8,15.9,15.8,15.9,15.7C15.9,15.7,15.9,15.7,15.9,15.7 C15.9,15.7,15.9,15.7,15.9,15.7z"/>
	</g>
</g>
</svg>
