<?xml version="1.0" encoding="utf-8"?>
<!-- Generator: Adobe Illustrator 16.0.0, SVG Export Plug-In . SVG Version: 6.00 Build 0)  -->
<!DOCTYPE svg PUBLIC "-//W3C//DTD SVG 1.1//EN" "http://www.w3.org/Graphics/SVG/1.1/DTD/svg11.dtd">
<svg version="1.1"
	 id="Layer_1" xmlns:rdf="http://www.w3.org/1999/02/22-rdf-syntax-ns#" xmlns:svg="http://www.w3.org/2000/svg" xmlns:cc="http://creativecommons.org/ns#" xmlns:dc="http://purl.org/dc/elements/1.1/"
	 xmlns="http://www.w3.org/2000/svg" xmlns:xlink="http://www.w3.org/1999/xlink" x="0px" y="0px" width="28px" height="16px"
	 viewBox="0 0 28 16" enable-background="new 0 0 28 16" xml:space="preserve">
<path id="path3678" fill="none" stroke="#000000" stroke-width="1.5" stroke-linecap="round" stroke-linejoin="round" stroke-miterlimit="10" d="
	M0,0"/>
<g>
	<path d="M10.392,1.086C9.329,0.278,8.131,0,6.612,0C5.46,0,4.475,0.235,3.694,0.761C2.543,1.546,2.002,2.863,2.002,4.946H4.97
		c0-0.557-0.055-1.155,0.271-1.67c0.324-0.514,0.776-0.907,1.554-0.907c0.788,0,1.193,0.228,1.576,0.699
		C8.695,3.47,8.818,3.949,8.818,4.459c0,0.441-0.224,0.847-0.49,1.214C8.181,5.889,7.987,6.082,7.744,6.269
		c0,0-1.604,0.954-2.168,1.858C5.155,8.799,5.005,9.642,4.97,10.65c-0.004,0.073,0.023,0.224,0.278,0.224c0.251,0,2.164,0,2.388,0
		c0.225,0,0.271-0.17,0.274-0.239c0.016-0.367,0.062-0.932,0.128-1.144c0.128-0.402,0.375-0.754,0.761-1.055L9.6,7.883
		c0.723-0.563,1.298-1.023,1.553-1.387c0.438-0.596,0.742-1.33,0.742-2.199C11.895,2.879,11.373,1.831,10.392,1.086z M6.407,12.412
		c-1.001-0.03-1.828,0.665-1.862,1.751c-0.031,1.09,0.753,1.805,1.758,1.836c1.044,0.03,1.852-0.642,1.882-1.728
		C8.216,13.186,7.45,12.443,6.407,12.412z"/>
</g>
</svg>
