<?xml version="1.0" encoding="utf-8"?>
<svg version="1.1" id="Layer_1" xmlns="http://www.w3.org/2000/svg" xmlns:xlink="http://www.w3.org/1999/xlink" x="0px" y="0px" viewBox="0 0 34.5 16" style="enable-background:new 0 0 34.5 16;" xml:space="preserve">
<style type="text/css">
	.st1{fill:none;stroke:#000000;stroke-miterlimit:10;stroke-width:2}
</style>
<g id="Padding__x26__Artboard">
</g>
<g id="Icons">
	<g>
		<path d="M25.5,14.3L25.5,14.3c-0.6-0.6-1.3-0.9-2-1.3c-0.1-0.1-0.3-0.1-0.4-0.2c-0.4-0.2-0.8-0.4-1.3-0.7 s-0.9-0.5-1.1-1s-0.2-0.6-0.2-1l0.2-0.3c0.2-0.3,0.3-1,0.4-1.4c0.3-0.1,0.4-0.4,0.5-0.6V7.7c0.1-0.3,0.2-0.6,0.2-0.9V6.7 c0-0.3,0.1-0.6-0.2-0.9c-0.1-0.1-0.2-0.1-0.3-0.1c0-0.2,0-0.6,0-1.2l0.3-0.2c0.1-0.1,0.1-0.2,0.1-0.3l-0.1-0.9 c0-0.1-0.4-2-2.5-2.5c-1.8-0.4-3,0.4-3.3,0.6c-0.5,0-1.1,0.3-1.4,1.4c-0.2,0.8,0,1.8,0,1.8c0,0.7,0,1,0,1.3 c-0.1,0-0.2,0.1-0.3,0.1c-0.3,0.3-0.2,0.7-0.2,1c0,0.4,0.1,0.7,0.3,1c0.1,0.2,0.3,0.5,0.5,0.6c0.1,0.4,0.2,1.1,0.4,1.4l0.2,0.3 c0,0.5,0,0.5-0.2,1s-0.4,0.6-1,0.9c-0.1,0-0.1,0.1-0.2,0.1l-0.2,0.1c-0.1,0-0.2,0.1-0.2,0.3c0,0.1,0.1,0.2,0.2,0.3 c0.8,0.4,2.3,1.4,2.7,3.1c0,0.1,0.1,0.2,0.3,0.2H26c0.1,0,0.2,0,0.2-0.1c0.1-0.1,0.1-0.1,0.1-0.2C26.2,15.5,26,14.9,25.5,14.3z"/>
		<path d="M15.9,15.7c-0.1-0.3-0.3-0.9-0.8-1.5c0,0,0-0.1-0.1-0.1c-0.5-0.5-1.2-0.8-1.8-1.2L13,12.8c0,0-0.1,0-0.1-0.1 l-0.1-0.1c-0.2-0.1-0.4-0.2-0.6-0.3l-0.4-0.2c-0.1,0-0.2-0.1-0.3-0.1c-0.4-0.2-0.9-0.4-1-0.8c-0.2-0.4-0.2-0.9-0.2-1.3h1 c0.1,0,0.2-0.1,0.3-0.2c0-0.1,0-0.2,0-0.3l0,0c1.2-0.3,1.2-0.4,1.2-0.6c0-0.2-0.1-0.4-0.2-0.5V8.2l-0.1-0.1L12.4,8 c0-0.3,0.1-0.6,0.2-0.9c0.1-0.2,0.1-0.4,0.2-0.6c0.1-0.3,0.1-0.5,0.1-0.8c0-0.5-0.1-1.1-0.2-1.7c-0.2-0.6-0.4-1.2-0.6-1.7 c-0.3-0.6-0.7-1.1-1.1-1.5C10.1,0.4,9.5,0.1,9,0C8.4-0.1,7.7,0,7,0.3c-0.3,0-0.7,0.1-1,0.2C5.4,0.8,4.8,1.3,4.3,2 C3.9,2.6,3.6,3.4,3.5,4.2C3.3,5.1,3.3,6,3.5,6.7c0,0.2,0.1,0.3,0.1,0.5c0,0.1,0.1,0.2,0.1,0.3v0.1c0,0.1,0.1,0.3,0.1,0.3 c0.1,0,0,0.1,0,0.1c0,0.1-0.1,0.1-0.2,0.2C3.5,8.4,3.4,8.5,3.4,8.7s0,0.3,1.2,0.6l0,0c-0.1,0.1-0.1,0.2,0,0.3 c0,0.1,0.1,0.2,0.3,0.2h1c0,0.5-0.1,0.9-0.2,1.3C5.5,11.5,5,11.7,4.6,12c-0.1,0-0.2,0.1-0.4,0.2c-0.4,0.2-0.8,0.4-1.1,0.6 C3,12.9,2.8,13,2.7,13c-0.6,0.3-1.3,0.7-1.8,1.2v0.1c-0.5,0.6-0.7,1.2-0.7,1.5c0,0.1,0,0.2,0.1,0.2s-0.1,0,0,0h9.5h5.9l0,0 c0,0,0,0,0.1,0l0,0c0,0,0,0,0.1,0l0,0l0,0l0,0c0,0,0,0,0-0.1C15.9,15.8,15.9,15.8,15.9,15.7C15.9,15.8,15.9,15.8,15.9,15.7 L15.9,15.7L15.9,15.7z"/>
	</g>
</g>
<line class="st1" x1="24.2" y1="8" x2="33.2" y2="8"/>
<line class="st1" x1="28.7" y1="3.5" x2="28.7" y2="12.5"/>
</svg>
