<?xml version="1.0" encoding="utf-8"?>
<svg version="1.1" id="Layer_1" xmlns="http://www.w3.org/2000/svg" xmlns:xlink="http://www.w3.org/1999/xlink" x="0px" y="0px"
	 viewBox="0 0 27.4 16" style="enable-background:new 0 0 27.4 16;" xml:space="preserve">
<path d="M9.9,7V4c0-2.2-1.8-4-4-4C3.8,0,2,1.8,2,4v3C0.9,7,0,7.9,0,9v5c0,1.1,0.9,2,2,2h8c1.1,0,2-0.9,2-2V9C11.9,7.9,11,7,9.9,7z M6.5,11.8v1.6C6.5,13.7,6.2,14,6,14s-0.5-0.2-0.5-0.5v-1.6C5.2,11.7,5,11.3,5,11c0-0.6,0.4-1,1-1s1,0.4,1,1 C7,11.3,6.8,11.7,6.5,11.8z M8,7H4V4c0-1.1,0.9-2,2-2c1.1,0,2,0.9,2,2V7z"/>
</svg>
