<?xml version="1.0" encoding="utf-8"?>
<!-- Generator: Adobe Illustrator 21.0.2, SVG Export Plug-In . SVG Version: 6.00 Build 0)  -->
<svg version="1.1" id="Layer_1" xmlns="http://www.w3.org/2000/svg" xmlns:xlink="http://www.w3.org/1999/xlink" x="0px" y="0px"
	 viewBox="0 0 28.1 16.7" style="enable-background:new 0 0 28.1 16.7;" xml:space="preserve">
<path d="M8.3,0C3.7,0,0,3.7,0,8.3s3.7,8.3,8.3,8.3c0.6,0,1.1-0.1,1.6-0.2c-0.2-0.1-0.2-0.9,0-1.3c0.2-0.5,1-1.7,0.2-2.1 s-0.5-0.6-1-1.1c-0.4-0.5-0.3-0.6-0.3-0.7c-0.1-0.4,0.4-1.1,0.5-1.1c0-0.1,0-0.3,0-0.4c0-0.1-0.3-0.3-0.4-0.3 c-0.1,0-0.1,0.1-0.2,0.1C8.6,9.7,8.1,9.4,8,9.3C7.9,9.2,7.9,9,7.7,8.8s-0.2,0-0.4-0.1c-0.2-0.1-1-0.4-1.5-0.6 C5.3,7.9,5.2,7.6,5.2,7.4S4.9,6.8,4.7,6.6C4.5,6.3,4.5,6,4.5,6.1C4.4,6.2,4.8,7,4.7,7c-0.1,0-0.2-0.2-0.3-0.4C4.2,6.4,4.5,6.5,4,5.5 s0.2-1.5,0.2-2.1s0.4,0.2,0.2-0.1c-0.2-0.3,0-1.1-0.1-1.3C4.1,1.7,3.2,2.2,3.2,2.2C3.2,2,4,1.5,4.6,1.1S5.5,1,5.9,1.2s0.5,0.1,0.3,0 C6.1,1,6.3,0.9,6.7,1c0.4,0.1,0.5,0.5,1,0.4c0.5,0,0.1,0.1,0.1,0.2S7.8,1.8,7.4,2s0,0.2,0.6,0.7s0.4-0.3,0.4-0.7 C8.3,1.7,8.9,2,8.9,2c0.4,0.3,0.3,0,0.6,0.1c0.3,0.1,1.1,0.7,1.1,0.7c-1,0.5-0.4,0.6-0.2,0.7C10.5,3.7,10,3.9,10,3.9 C9.8,3.7,9.8,3.9,9.6,4c-0.1,0.1,0,0.3,0,0.3C9,4.4,9.1,5.1,9.1,5.3c0,0.2-0.4,0.4-0.5,0.7C8.5,6.2,8.9,6.7,8.7,6.7 c-0.2,0-0.4-0.8-1.6-0.5C6.8,6.3,6,6.7,6.4,7.5s1.1-0.2,1.3-0.1c0.2,0.1-0.1,0.6,0,0.6c0,0,0.6,0,0.7,0.7c0,0.7,0.9,0.6,1.1,0.7 c0.2,0,0.8-0.5,0.9-0.5c0.1,0,0.4-0.3,1.2,0.1c0.8,0.4,1.2,0.4,1.4,0.6c0.3,0.2,0.1,0.6,0.3,0.7c0.3,0.1,1.3,0,1.5,0.4 c0.3,0.4-1,2.5-1.4,2.7c-0.4,0.2-0.6,0.7-1,1.1c-0.4,0.3-1,0.7-1.5,1.1c-0.5,0.3-0.6,0.8-0.8,0.9c3.7-0.8,6.5-4.2,6.5-8.1 C16.7,3.7,12.9,0,8.3,0z M10.3,7.8c-0.1,0-0.3,0.2-0.9-0.1c-0.6-0.3-1-0.3-1-0.3c0,0,0-0.1,0.2-0.2c0.5-0.1,1.2,0.5,1.3,0.5 s0.2-0.1,0.5-0.1C10.6,7.7,10.4,7.8,10.3,7.8z M7.6,0.8c-0.1,0,0-0.1,0.1-0.2c0,0,0-0.1,0.1-0.2c0.1-0.1,0.7-0.3,0.6,0 C8.2,0.9,7.6,0.9,7.6,0.8z M9,1.9c-0.2,0-0.7-0.1-0.6-0.1C8.8,1.4,8.3,1.3,8,1.3c-0.3,0-0.4-0.2-0.3-0.2s0.7,0,0.8,0.1 c0.1,0.1,0.6,0.3,0.7,0.4C9.3,1.8,9.2,1.9,9,1.9z M10.8,1.8c-0.2,0.1-1-0.5-1.1-0.6C9,0.6,8.6,0.8,8.5,0.7C8.3,0.6,8.4,0.5,8.6,0.3 s0.8,0.1,1.2,0.1c0.4,0,0.8,0.3,0.8,0.6C10.6,1.4,10.9,1.7,10.8,1.8z"/>
</svg>
